<?xml version="1.0" encoding="UTF-8"?>
<svg id="Laag_1" data-name="Laag 1" xmlns="http://www.w3.org/2000/svg" viewBox="0 0 328.85 175.89">
  <defs>
    <style>
      .cls-1, .cls-2, .cls-3, .cls-4 {
        stroke-width: 0px;
      }

      .cls-1, .cls-4 {
        fill: #9bceef;
      }

      .cls-5 {
        fill: none;
        stroke: #9bceef;
        stroke-miterlimit: 10;
        stroke-width: 3px;
      }

      .cls-5, .cls-2, .cls-6, .cls-4 {
        opacity: .76;
      }

      .cls-2 {
        fill: #22709f;
      }

      .cls-3 {
        fill: #fff;
      }
    </style>
  </defs>
  <path class="cls-2" d="M174.63,90.57c-3.03,43.18-39.02,77.27-82.97,77.27-17.92,0-34.52-5.67-48.1-15.31-21.22-15.07-35.07-39.85-35.07-67.86C8.49,38.74,45.73,1.5,91.67,1.5c32.7,0,66.65,23.44,80.24,50.88l-28.32.24c-9.89-13.6-33.82-22.37-51.92-22.37-30.05,0-54.42,24.36-54.42,54.42s24.36,54.42,54.42,54.42,52.73-22.71,54.33-51.32l28.64,2.81Z"/>
  <path class="cls-4" d="M145.49,87.83s2.06,19.69-19.43,38.4c-2.13,1.86-4.56,3.35-6.92,4.93-26.75,17.96-50.67,28.35-60.56,29.84,3.06.95,20.43,7.95,36.47,6.71,25.55-1.98,70.19-13.99,80.78-76.98l-30.34-2.91Z"/>
  <polygon class="cls-2" points="146.29 87.87 191.26 170.6 214.09 170.6 174.59 90.77 146.29 87.87"/>
  <rect class="cls-4" x="190.89" y="90.59" width="23.2" height="80.01"/>
  <g class="cls-6">
    <g>
      <path class="cls-1" d="M239.07,112.44c-5.92,0-11.02-3.19-11.02-10.47s5.11-10.44,11.05-10.44c2.9,0,5.68.73,7.77,2.67.26.29.46.64.46,1.07,0,.87-.67,1.48-1.48,1.48-.73,0-1.36-.55-1.89-.78-1.48-1.1-3.22-1.31-4.87-1.31-4.03,0-7.4,2.29-7.4,7.31s3.31,7.37,7.43,7.37c2.18,0,4.09-.46,5.8-1.62.32-.2.64-.29.93-.29.9,0,1.59.81,1.59,1.62,0,.41-.17.81-.58,1.1-2.18,1.74-4.96,2.29-7.8,2.29Z"/>
      <path class="cls-1" d="M255.8,112.44c-4.21,0-6.9-2.64-6.9-6.38s2.7-6.38,6.88-6.38,6.9,2.64,6.9,6.38-2.73,6.38-6.87,6.38ZM255.77,102.35c-2.12,0-3.57,1.54-3.57,3.71s1.45,3.71,3.57,3.71,3.6-1.51,3.6-3.71-1.45-3.71-3.6-3.71Z"/>
      <path class="cls-1" d="M279.9,105.22c0-1.97-1.01-2.64-2.12-2.64s-2.12.67-2.12,2.64v5.42c0,.99-.67,1.51-1.62,1.51s-1.57-.49-1.57-1.51v-5.42c0-1.97-1.04-2.64-2.12-2.64s-2.12.67-2.12,2.64v5.42c0,.99-.67,1.51-1.62,1.51s-1.57-.52-1.57-1.51v-5.42c0-4.5,2.32-5.54,4.73-5.54s3.63.9,4.29,2.44c.67-1.57,2.12-2.44,4.32-2.44,2.49,0,4.7,1.16,4.7,5.54v5.42c0,.99-.64,1.51-1.6,1.51s-1.6-.49-1.6-1.51v-5.42Z"/>
      <path class="cls-1" d="M288.83,107.37c.49,1.28,1.8,2.06,4.03,2.06,1.59,0,2.52-.46,3.22-.81,1.01-.41,1.74.44,1.74,1.31,0,.44-.2.9-.61,1.22-.96.64-2.55,1.13-4.87,1.13-4.44,0-6.88-2.55-6.88-6.24s2.47-6.35,6.76-6.35c3.25,0,5.71,1.51,5.71,4.38,0,3.02-2.23,4.18-5.19,4.18-1.48,0-2.76-.2-3.92-.87ZM288.75,104.73c1.19.46,2.17.67,3.48.67,1.8,0,2.67-.55,2.67-1.45s-.93-1.54-2.58-1.54c-2.15,0-3.19.93-3.57,2.32Z"/>
      <path class="cls-1" d="M299.85,106.15c0-4.06,2.5-6.47,6.15-6.47,1.91,0,3.39.58,4.38,1.62v-8.88c0-.96.78-1.45,1.57-1.45s1.62.49,1.62,1.45v13.6c-.06,3.6-2.64,6.41-6.88,6.41-3.92,0-6.85-2.29-6.85-6.29ZM306.7,102.32c-1.88,0-3.54,1.28-3.54,3.71s1.65,3.74,3.54,3.74c2,0,3.63-1.39,3.63-3.74s-1.62-3.71-3.63-3.71Z"/>
      <path class="cls-1" d="M321.92,117.95c-2.15,0-3.07-.23-4.67-.7-.67-.2-.99-.78-.99-1.33,0-.81.64-1.6,1.77-1.28,1.16.32,2.18.55,3.74.55,2,0,3.86-.67,3.86-3.48v-1.89c-.09,1.33-1.65,2.58-3.86,2.58-3.08,0-5.34-1.48-5.34-6.12v-4.84c0-1.02.78-1.51,1.57-1.51.81.03,1.62.52,1.62,1.51v4.79c0,2.44,1.48,3.19,3.02,3.19s2.96-.81,2.99-3.1v-4.87c0-1.02.81-1.51,1.6-1.51.81.03,1.62.52,1.62,1.51v10.27c0,4.87-3.39,6.24-6.93,6.24Z"/>
      <path class="cls-1" d="M239.07,141.44c-5.92,0-11.02-3.19-11.02-10.47s5.11-10.44,11.05-10.44c2.9,0,5.68.73,7.77,2.67.26.29.46.64.46,1.07,0,.87-.67,1.48-1.48,1.48-.73,0-1.36-.55-1.89-.78-1.48-1.1-3.22-1.31-4.87-1.31-4.03,0-7.4,2.29-7.4,7.31s3.31,7.37,7.43,7.37c2.18,0,4.09-.46,5.8-1.62.32-.2.64-.29.93-.29.9,0,1.59.81,1.59,1.62,0,.41-.17.81-.58,1.1-2.18,1.74-4.96,2.29-7.8,2.29Z"/>
      <path class="cls-1" d="M252.99,137.29c0,.73.2.99.73,1.04.58.09.93.81.87,1.51-.09.67-.55,1.31-1.86,1.31-1.71,0-2.93-1.07-2.93-3.1v-16.62c0-.96.75-1.45,1.59-1.45s1.6.49,1.6,1.45v15.87Z"/>
      <path class="cls-1" d="M265.63,130.48c0-1.07.78-1.54,1.57-1.54s1.62.46,1.62,1.54v4.9c0,4.18-2.75,6.06-6.21,6.06s-6.21-1.89-6.21-6.06v-4.9c0-1.07.81-1.54,1.6-1.54s1.6.49,1.6,1.54v4.79c0,2.15,1.07,3.25,3.02,3.25s3.02-1.1,3.02-3.25v-4.79Z"/>
      <path class="cls-1" d="M271.61,121.43c0-.96.78-1.45,1.6-1.45s1.59.49,1.59,1.45v9.05c.99-1.16,2.5-1.8,4.38-1.8,3.89,0,5.97,2.76,5.97,6.21,0,3.8-2.55,6.56-6.82,6.56s-6.73-2.84-6.73-6.44v-13.58ZM278.34,138.74c2.15,0,3.51-1.42,3.51-3.66s-1.39-3.71-3.51-3.71-3.48,1.42-3.48,3.71,1.42,3.66,3.48,3.66Z"/>
      <path class="cls-1" d="M243.62,159.27c0-4.52-2.35-6.53-5.92-6.53s-5.92,2-5.92,6.53v9.34c0,1.1-.64,1.54-1.65,1.54s-1.65-.44-1.65-1.54v-9.34c0-5.92,3.13-9.63,9.22-9.63s9.22,3.71,9.22,9.63v9.34c0,1.1-.7,1.54-1.65,1.54s-1.65-.44-1.65-1.54v-9.34Z"/>
      <path class="cls-1" d="M249.45,153.65c0-1.04.78-1.8,1.86-1.8s1.86.75,1.86,1.8c0,1.13-.81,1.83-1.86,1.83s-1.86-.7-1.86-1.83ZM251.28,157.94c.99,0,1.62.52,1.62,1.51v6.84c0,.73.17.99.73,1.04.58.09.93.81.84,1.51-.06.67-.55,1.31-1.86,1.31-1.68,0-2.9-1.07-2.9-3.1v-7.6c0-1.02.58-1.51,1.57-1.51Z"/>
      <path class="cls-1" d="M266.21,168.53c-.93,1.3-2.41,1.88-4.24,1.88-3.68,0-6.29-2.35-6.29-6.15s2.81-6.58,6.9-6.58,6.76,2.84,6.82,6.38v5.11c0,5.34-4.12,6.73-8.04,6.73-2.15,0-3.68-.35-4.87-.72-.64-.17-.96-.7-.96-1.25,0-.78.67-1.62,1.83-1.33,1.22.35,2.12.64,4.06.64,2.35,0,4.79-1.04,4.79-4.06v-.64ZM262.56,160.35c-1.91,0-3.57,1.36-3.57,3.66s1.65,3.57,3.6,3.57,3.57-1.3,3.57-3.57-1.62-3.66-3.6-3.66Z"/>
      <path class="cls-1" d="M273.81,170.15c-.78,0-1.6-.46-1.6-1.45v-18.27c0-.96.81-1.45,1.6-1.45s1.6.49,1.6,1.45v9.14c.64-1.07,2.18-1.88,4.12-1.88,2.99,0,5.1,1.42,5.1,6.18v4.79c0,.99-.78,1.51-1.57,1.51s-1.62-.52-1.62-1.51v-4.79c0-2.2-.93-3.33-2.96-3.33s-2.99,1.22-3.07,3.1v5.08c0,.99-.81,1.45-1.6,1.45Z"/>
      <path class="cls-1" d="M287.15,155.56c0-.96.75-1.42,1.51-1.42s1.51.46,1.51,1.42v2.41h1.97c1.01,0,1.54.75,1.54,1.48s-.49,1.48-1.54,1.48h-1.97v3.39c0,2.06.84,2.87,2.61,2.87.96,0,1.36.73,1.36,1.48s-.46,1.48-1.51,1.48c-4.21,0-5.48-2-5.48-5.83v-8.76Z"/>
    </g>
  </g>
  <path class="cls-5" d="M167.64,90.57c-3.03,43.18-39.02,77.27-82.97,77.27-17.92,0-34.52-5.67-48.1-15.31C15.35,137.46,1.5,112.69,1.5,84.67,1.5,38.74,38.74,1.5,84.67,1.5c32.7,0,66.65,23.44,80.24,50.88l-28.32.24c-9.89-13.6-33.82-22.37-51.92-22.37-30.05,0-54.42,24.36-54.42,54.42s24.36,54.42,54.42,54.42,52.73-22.71,54.33-51.32l28.64,2.81Z"/>
  <path class="cls-3" d="M203.8,16.37c.1.03.15.07.13.1-.02.03-.04.08-.08.15,0,.03,0,.08-.03.13-.02.05-.03.09-.03.13-.31.3-.63.53-.98.68-.34.15-.7.3-1.08.43-.38.14-.74.28-1.08.43-.34.15-.67.38-.98.68-.03.03-.08.06-.13.08-.05.02-.11.03-.18.03-.1.03-.21.08-.33.13-.12.05-.23.09-.33.13-.58.24-1.16.5-1.75.78-.58.29-1.08.67-1.49,1.14-.03,1.05-.08,2.1-.13,3.16s-.09,2.13-.13,3.21c-.1,1.85-.2,3.71-.28,5.56-.09,1.85-.13,3.73-.13,5.61,0,.17-.05.31-.15.43-.1.12-.21.23-.31.33l-.05.05c-.07.07-.14.13-.21.18-.07.05-.12.11-.15.18-.27,0-.49-.1-.64-.3-.15-.2-.27-.44-.33-.71.41-1.99.7-4,.87-6.04.17-2.04.26-4.1.26-6.2,0-.88,0-1.76-.03-2.66-.02-.89-.06-1.78-.13-2.66l-.31-.35-4.57.71c-.14,0-.24-.04-.31-.13-.07-.08-.12-.18-.15-.28v-.35c.21-.2.43-.33.67-.38.24-.05.5-.08.77-.08h.51c.17,0,.33,0,.49-.03.15-.02.3-.06.44-.13l2.47-.66c0-.07,0-.16.03-.28.02-.12.03-.23.03-.33,0-.24,0-.47.03-.71.02-.24.03-.46.03-.66.14-2.6.39-5.17.77-7.71.38-2.54,1.18-4.89,2.41-7.05.48-.51.98-.89,1.52-1.14.53-.25,1.12-.41,1.77-.48.82.1,1.56.39,2.21.86.65.47,1.1,1.1,1.34,1.87.07.14.11.26.13.38.02.12.03.23.03.33,0,.34-.09.67-.28.99-.19.32-.39.62-.59.89-.07.1-.13.19-.18.25-.05.07-.11.14-.18.2.03-.1.05-.2.05-.3v-.35c0-.57-.12-1.15-.36-1.75-.24-.59-.5-1.14-.77-1.64-.03-.03-.06-.08-.08-.13-.02-.05-.04-.09-.08-.13-.21-.2-.45-.36-.72-.48-.27-.12-.56-.18-.87-.18h-.15c-.07,0-.12.02-.15.05-.1,0-.21.02-.31.05-.1.03-.21.08-.31.15-.75.41-1.26.92-1.52,1.55s-.47,1.29-.64,2.01v.13c0,.05-.02.09-.05.13-.07.31-.14.6-.21.89-.07.29-.17.57-.31.84-.03.34-.08.68-.13,1.02-.05.34-.11.68-.18,1.01-.03.17-.07.36-.1.56-.03.2-.07.39-.1.56-.17.81-.33,1.63-.46,2.46-.14.83-.21,1.67-.21,2.51,0,.44.03.89.08,1.37.05.47.15.94.28,1.42.14.1.27.17.41.2.14.03.29.05.46.05.1,0,.21,0,.33-.03.12-.02.23-.04.33-.08.21-.03.39-.08.56-.15.17-.07.34-.13.51-.2.03,0,.08,0,.13-.03.05-.02.09-.04.13-.08.38-.3.79-.55,1.23-.73.44-.18.91-.35,1.39-.48.07-.03.13-.06.18-.08.05-.02.09-.03.13-.03.41-.13.81-.27,1.21-.4.39-.13.76-.32,1.1-.56v-.05Z"/>
  <path class="cls-3" d="M206.06,20.32c.07-.2.22-.37.46-.51.24-.13.48-.2.72-.2h.28c.05,0,.09.02.13.05.1,0,.21.03.33.08.12.05.21.11.28.18v.51c0,.64-.04,1.29-.13,1.95-.09.66-.18,1.32-.28,2-.14.64-.25,1.28-.33,1.92-.09.64-.13,1.28-.13,1.92,0,.47.04.95.13,1.44.09.49.21.97.39,1.44.03.07.08.13.13.18s.09.08.13.08c.03.03.08.06.13.08.05.02.09.03.13.03.1,0,.2-.02.28-.05.09-.03.16-.08.23-.15.07-.03.15-.07.23-.1.09-.03.16-.05.23-.05.38-.4.74-.83,1.08-1.26.34-.44.68-.88,1.03-1.32.03-.03.06-.07.08-.1.02-.03.04-.05.08-.05.65-.88,1.33-1.72,2.03-2.53.7-.81,1.5-1.53,2.39-2.17-.34.94-.83,1.83-1.46,2.66-.63.83-1.29,1.64-1.98,2.45-.03.03-.08.08-.13.13-.05.05-.09.09-.13.13-.58.67-1.14,1.36-1.67,2.05-.53.69-.97,1.41-1.31,2.15-.17.34-.41.56-.72.66-.31.1-.63.15-.98.15-.17,0-.33,0-.49-.03-.15-.02-.32-.04-.49-.08-.21-.64-.39-1.29-.57-1.95-.17-.66-.26-1.36-.26-2.1v-1.26c0-.44-.02-.88-.05-1.32-.03-.44-.07-.89-.1-1.37-.07-.44-.12-.88-.15-1.32-.03-.44-.05-.88-.05-1.32,0-.51.04-1,.13-1.49.09-.49.21-.97.39-1.44v-.05ZM208.26,9.64c.07.03.15.05.23.05h.23c.24.03.45.09.64.18.19.08.32.26.39.53,0,.03,0,.08-.03.15-.02.07-.03.12-.03.15-.03.07-.05.14-.05.2s-.02.12-.05.15c-.03.24-.1.46-.21.68-.1.22-.26.43-.46.63l-1.34-.25c-.07-.1-.12-.21-.15-.33-.03-.12-.05-.24-.05-.38,0-.3.08-.59.23-.86.15-.27.33-.51.54-.71,0-.03,0-.06.03-.08.02-.02.04-.04.08-.08v-.05Z"/>
  <path class="cls-3" d="M224.54,1.55c.14,0,.26,0,.39-.03.12-.02.23-.03.33-.03.65.03,1.15.24,1.49.61.34.37.53.89.56,1.57v.35c0,1.18-.21,2.27-.64,3.25-.43.98-.88,1.95-1.36,2.89-.03.03-.07.08-.1.13-.03.05-.07.11-.1.18-.24.47-.48.95-.72,1.42-.24.47-.45.96-.62,1.47-.17.24-.34.47-.51.71-.17.24-.34.47-.51.71-.07.1-.15.2-.23.3-.09.1-.16.22-.23.35-.48.68-.97,1.34-1.46,1.98-.5.64-1.05,1.25-1.67,1.83-.14.47-.23.94-.28,1.39-.05.46-.08.92-.08,1.39,0,1.92.47,3.73,1.41,5.44.94,1.7,2.25,3.16,3.93,4.38.03.03.09.08.15.13.07.05.14.11.21.18.14.17.26.35.36.56.1.2.05.42-.15.66-.1.24-.28.4-.54.51-.26.1-.54.15-.85.15-.17,0-.34-.02-.51-.05-.17-.03-.34-.07-.51-.1-2.33-1.28-3.77-3.03-4.34-5.23-.56-2.21-.85-4.54-.85-7.01v-1.14c0-.39.02-.77.05-1.14v-3.09c0-.3-.02-.59-.05-.86.31-2,.83-3.92,1.57-5.76.74-1.84,1.52-3.66,2.34-5.46.21-.41.49-.74.85-.99s.74-.48,1.16-.69c.03-.03.09-.07.15-.1.07-.03.14-.07.21-.1.21-.1.41-.21.62-.33s.39-.24.56-.38v-.05ZM225.26,5.5l-.41-.91s-.07.05-.1.05h-.31c-1.16,0-2,.42-2.49,1.26-.5.84-.92,1.77-1.26,2.78-.03.03-.06.08-.08.13-.02.05-.03.09-.03.13-.14.44-.28.84-.44,1.21-.15.37-.32.73-.49,1.06v.35c0,.34-.03.67-.1.99-.07.32-.14.65-.21.99-.07.34-.14.67-.21.99-.07.32-.1.63-.1.94,0,.17.02.35.05.53.03.19.09.36.15.53.07-.03.14-.07.21-.1.07-.03.12-.07.15-.1.03-.03.07-.06.1-.08.03-.02.07-.04.1-.08.07-.03.14-.07.21-.1.07-.03.14-.05.21-.05.27-.51.58-1.01.92-1.52.34-.51.68-.99,1.03-1.47.03-.07.08-.14.13-.23.05-.08.11-.16.18-.23.72-1.01,1.36-2.04,1.93-3.09.56-1.04.85-2.21.85-3.49v-.51Z"/>
  <path class="cls-3" d="M244.73,17.79h.36c.24,0,.44.08.62.25.17.17.32.35.46.56,0,.03,0,.07.03.1.02.03.04.07.08.1.03.14.06.29.08.46.02.17.03.32.03.46.03.17.05.33.05.48v.48c0,.61-.03,1.21-.1,1.82-.07.61-.14,1.2-.21,1.77-.1.61-.19,1.21-.26,1.8-.07.59-.1,1.17-.1,1.75,0,.44.03.88.08,1.32.05.44.15.88.28,1.32.1-.17.21-.33.33-.48.12-.15.25-.31.39-.48.24-.3.47-.62.69-.96.22-.34.37-.71.44-1.11,1.06-.88,2.02-1.83,2.88-2.86.86-1.03,1.68-2.08,2.47-3.16.03-.03.07-.08.1-.13.03-.05.07-.09.1-.13.14-.17.26-.34.39-.51.12-.17.25-.34.39-.51.07.14.11.26.13.38.02.12.03.23.03.33,0,.37-.11.74-.33,1.09-.22.36-.47.7-.74,1.04-.07.07-.15.15-.23.25-.09.1-.16.19-.23.25-.07.14-.14.25-.21.36-.07.1-.14.2-.21.3-.17.34-.38.65-.62.94-.24.29-.5.58-.77.89-.38.44-.74.89-1.08,1.35-.34.46-.57.96-.67,1.5-.24.54-.55,1.07-.92,1.57-.38.51-.75,1.01-1.13,1.52-.1.1-.2.2-.28.3-.09.1-.16.2-.23.3-.21.24-.4.48-.59.74-.19.25-.37.52-.54.79h-.41c-.31,0-.58-.08-.82-.23-.24-.15-.39-.38-.46-.68,0-.1,0-.2-.03-.3-.02-.1-.03-.22-.03-.35v-.61c0-.71.03-1.41.1-2.08.07-.68.15-1.35.26-2.03.1-.68.19-1.35.26-2.03.07-.68.1-1.34.1-1.98,0-.27,0-.52-.03-.76-.02-.24-.04-.49-.08-.76-.03-.24-.08-.48-.13-.74-.05-.25-.11-.5-.18-.74,0-.03-.02-.07-.05-.1-.03-.03-.07-.07-.1-.1-.07-.07-.14-.13-.21-.18-.07-.05-.15-.08-.26-.08-.03.03-.07.05-.1.05s-.06,0-.08.03c-.02.02-.04.04-.08.08-.21.24-.4.49-.59.76-.19.27-.39.52-.59.76-.82,1.08-1.59,2.19-2.31,3.33-.72,1.13-1.22,2.36-1.49,3.68,0,.07,0,.14-.03.2-.02.07-.03.14-.03.2,0,.03,0,.09-.03.15-.02.07-.03.12-.03.15-.07.41-.17.78-.31,1.12-.14.34-.39.59-.77.76-.03,0-.09.02-.15.05h-.21c-.21,0-.39-.05-.56-.15-.17-.1-.29-.25-.36-.46.03-.27.06-.55.08-.84.02-.29.03-.58.03-.89,0-.47-.02-.96-.05-1.45-.03-.49-.07-.99-.1-1.5-.07-.51-.12-1.01-.15-1.5-.03-.49-.05-.97-.05-1.45v-.23c0-.08.02-.18.05-.28v-.46c-.03-.14-.12-.22-.26-.25-.14-.03-.29-.05-.46-.05-.69.75-1.23,1.56-1.64,2.44-.41.88-.8,1.76-1.18,2.64-.17.44-.34.87-.51,1.3-.17.42-.36.84-.56,1.24-.07.03-.14.08-.21.13-.07.05-.14.11-.21.18-.14.14-.29.25-.46.36-.17.1-.38.1-.62,0l-.46-.71c.07-.37.12-.76.15-1.17.03-.41.05-.79.05-1.17,0-.27,0-.53-.03-.79-.02-.25-.03-.5-.03-.74,0-.14,0-.27-.03-.41-.02-.14-.03-.25-.03-.36-.03-.41-.06-.8-.08-1.17-.02-.37-.03-.74-.03-1.12,0-.61.04-1.21.13-1.8.09-.59.25-1.16.49-1.7.14-.07.25-.13.33-.18.09-.05.18-.08.28-.08s.2.03.28.08c.09.05.2.11.33.18l.46.51c-.07.47-.11.94-.13,1.42-.02.47-.03.94-.03,1.42v3.03c.27-.13.49-.33.64-.58.15-.25.3-.51.44-.78,0-.03,0-.07.03-.1.02-.03.03-.07.03-.1.1-.24.21-.46.33-.66.12-.2.26-.39.44-.56.21-.17.4-.38.59-.63.19-.25.37-.51.54-.78.27-.44.57-.84.9-1.21.33-.37.76-.56,1.31-.56h.21c.48.34.79.77.92,1.29.14.52.21,1.07.21,1.64v1.11c-.03.2-.05.4-.05.58v.53c0,.34.02.66.05.96.03.3.1.59.21.86.07-.13.15-.26.23-.38.09-.12.16-.23.23-.33.14-.24.27-.46.41-.68.14-.22.27-.43.41-.63.72-1.21,1.51-2.4,2.36-3.57.86-1.16,1.87-2.23,3.03-3.21v-.05Z"/>
  <path class="cls-3" d="M262.96,8.02c.65.07,1.19.35,1.62.83.43.49.76,1.02,1,1.59.03.14.07.28.1.43.03.15.05.3.05.43.03.14.05.28.05.43v.43c-.03,1.69-.57,3.27-1.59,4.75-1.03,1.48-2.19,2.82-3.49,4-.14.1-.28.19-.44.25-.15.07-.32.14-.49.2h-.05c-.34.14-.66.29-.95.46-.29.17-.51.42-.64.76l.31,4.96.31.35c.14-.17.27-.35.41-.56.14-.2.27-.4.41-.61.17-.24.33-.48.49-.73.15-.25.32-.51.49-.78.58-.88,1.2-1.73,1.85-2.55.65-.83,1.4-1.53,2.26-2.1h.08s.04-.02.08-.05h.21c.31.03.59.15.85.35.26.2.45.42.59.66,0,.03.02.08.05.13.03.05.05.09.05.13,0,.61-.03,1.21-.08,1.82-.05.61-.11,1.21-.18,1.82-.03.34-.07.67-.1,1.01-.03.34-.07.67-.1,1.01-.07.47-.13.94-.18,1.39-.05.46-.09.92-.13,1.39.03.07.08.14.13.2.05.07.09.14.13.2,0,.03,0,.05.03.05s.03.02.03.05c.03.03.08.08.13.15.05.07.09.14.13.2l.36-.05c.51-.4,1-.83,1.46-1.26.46-.44.92-.89,1.36-1.37.41-.4.82-.81,1.23-1.21.41-.4.82-.81,1.23-1.21.55-.57,1.11-1.12,1.69-1.64.58-.52,1.16-1.04,1.75-1.54v.4c-.24.37-.5.71-.77,1.01-.27.3-.55.61-.82.91-.07.07-.13.14-.18.2-.05.07-.11.14-.18.2-.48.54-.94,1.09-1.39,1.64-.45.56-.82,1.17-1.13,1.85-.48.37-.9.77-1.26,1.19-.36.42-.69.85-1,1.29-.03.03-.07.08-.1.13-.03.05-.07.09-.1.13-.27.37-.56.75-.87,1.14-.31.39-.67.75-1.08,1.09-.27.07-.51.04-.72-.08-.21-.12-.41-.28-.62-.48,0-.03-.02-.06-.05-.08-.03-.02-.05-.04-.05-.08-.03-.03-.07-.07-.1-.1-.21-.47-.35-.94-.44-1.39-.09-.46-.13-.9-.13-1.34,0-.47.03-.94.1-1.42.07-.47.14-.94.21-1.42.07-.47.14-.94.21-1.42.07-.47.1-.94.1-1.42,0-.2,0-.4-.03-.58-.02-.18-.04-.38-.08-.58-.03-.2-.08-.4-.13-.58-.05-.18-.11-.38-.18-.58-.03-.07-.09-.11-.18-.13-.09-.02-.16-.03-.23-.03h-.51c-1.34,1.52-2.35,3.18-3.06,4.98-.7,1.8-1.19,3.7-1.46,5.69-.14.27-.35.51-.64.73-.29.22-.61.33-.95.33h-.23c-.09,0-.16-.02-.23-.05l-.31-.51v-.43c0-.15.02-.29.05-.43v-.91c0-.74-.02-1.5-.05-2.28-.03-.78-.05-1.55-.05-2.33-.03-.47-.06-.94-.08-1.42-.02-.47-.03-.94-.03-1.42-.03-.3-.05-.61-.05-.94v-.94c0-2.39.21-4.7.64-6.93.43-2.23,1.34-4.21,2.75-5.97.44-.44.91-.78,1.39-1.01.48-.24.99-.37,1.54-.4v-.05ZM264.55,10.05l-.67-.81c-1.13.14-1.97.57-2.52,1.32-.55.74-1.03,1.55-1.44,2.43-.03.07-.07.14-.1.2-.03.07-.07.14-.1.2-.14.3-.29.62-.46.94-.17.32-.34.62-.51.89v.4c0,.3-.03.62-.08.94-.05.32-.11.63-.18.94-.07.34-.13.66-.18.96-.05.3-.08.61-.08.91,0,.2.02.4.05.58.03.19.09.36.15.53h.1c.21,0,.4-.04.59-.13.19-.08.37-.18.54-.28.03,0,.06,0,.08-.03.02-.02.04-.03.08-.03.14-.1.27-.18.41-.23.14-.05.29-.08.46-.08,1.3-1.11,2.28-2.4,2.93-3.87.65-1.47.98-2.99.98-4.58v-.61c0-.07,0-.15-.03-.25-.02-.1-.03-.2-.03-.3v-.05Z"/>
  <path class="cls-3" d="M288.69,17.79s.07.04.1.03c.03-.02.07-.03.1-.03h.15c.34,0,.63.12.87.35.24.24.38.49.41.76-.03.51-.09,1.02-.18,1.54-.09.52-.16,1.04-.23,1.54-.07.4-.13.8-.18,1.19-.05.39-.09.78-.13,1.19-.07.44-.12.89-.15,1.34-.03.46-.05.92-.05,1.39,0,.64.03,1.27.1,1.9.07.62.21,1.24.41,1.85.92-.1,1.71-.44,2.36-1.01.65-.57,1.25-1.2,1.8-1.87.07-.07.13-.13.18-.2.05-.07.11-.12.18-.15.31-.37.62-.72.95-1.06.33-.34.66-.62,1-.86.31-.64.71-1.22,1.21-1.75.5-.52,1.02-1.02,1.57-1.49.07-.03.13-.08.18-.13.05-.05.11-.11.18-.18.41-.37.8-.74,1.18-1.11.38-.37.7-.76.98-1.16l.41-.05c-.31.71-.71,1.38-1.21,2.01-.5.63-1,1.23-1.52,1.8-.55.64-1.07,1.28-1.57,1.9-.5.63-.9,1.29-1.21,2-.55.58-1.08,1.14-1.59,1.7-.51.56-1.03,1.11-1.54,1.65-.51.54-1.03,1.07-1.54,1.57s-1.04.98-1.59,1.42c-.1.07-.21.11-.31.13-.1.02-.21.03-.31.03-.27,0-.52-.08-.74-.25-.22-.17-.42-.37-.59-.61,0-.03,0-.07-.03-.1-.02-.03-.04-.07-.08-.1-.27-.61-.48-1.26-.62-1.97-.14-.71-.26-1.42-.36-2.12-.03-.27-.07-.54-.1-.81-.03-.27-.07-.54-.1-.81-.03-.44-.08-.87-.13-1.29-.05-.42-.11-.82-.18-1.19-.31.17-.57.39-.77.66-.21.27-.39.54-.57.81-.17.3-.36.59-.56.86-.21.27-.46.49-.77.66l.15.1c-.21.3-.39.63-.54.99-.15.35-.32.72-.49,1.09-.03.07-.06.14-.08.23-.02.08-.04.16-.08.23-.31.81-.69,1.55-1.13,2.23-.45.67-1.11,1.01-2,1.01-.14,0-.29-.02-.46-.05-.17-.03-.34-.07-.51-.1-.55-.64-.92-1.37-1.1-2.18-.19-.81-.28-1.67-.28-2.59,0-.3,0-.61.03-.91.02-.3.04-.63.08-.96,0-.14,0-.29.03-.46.02-.17.03-.32.03-.46.03-.47.07-.94.1-1.4.03-.46.05-.89.05-1.29v-.35c.24-.2.39-.49.46-.86.07-.37.1-.76.1-1.17.03-.03.05-.08.05-.15.03-.57.11-1.08.23-1.52.12-.44.44-.66.95-.66.17,0,.33.03.49.08.15.05.33.11.54.18.1.1.18.2.23.3.05.1.09.2.13.3.03.14.06.25.08.35.02.1.03.2.03.3,0,.3-.06.6-.18.89-.12.29-.23.58-.33.89-.14.3-.27.62-.39.94-.12.32-.18.67-.18,1.04v.18c0,.05.02.11.05.18,0,.07,0,.13.03.18.02.05.03.11.03.18-.14.37-.25.77-.33,1.19-.09.42-.15.83-.18,1.24v1.26c.03.4.09.81.18,1.21.09.4.2.78.33,1.11.68-.1,1.22-.4,1.62-.91.39-.51.76-1.04,1.1-1.62.14-.3.29-.59.46-.86.17-.27.36-.52.57-.76.68-1.48,1.42-2.92,2.21-4.32.79-1.4,1.63-2.79,2.52-4.17v-.05Z"/>
  <path class="cls-3" d="M304.31,20.32c.07-.2.22-.37.46-.51.24-.13.48-.2.72-.2h.28c.05,0,.09.02.13.05.1,0,.21.03.33.08.12.05.21.11.28.18v.51c0,.64-.04,1.29-.13,1.95-.09.66-.18,1.32-.28,2-.14.64-.25,1.28-.33,1.92-.09.64-.13,1.28-.13,1.92,0,.47.04.95.13,1.44.09.49.21.97.39,1.44.03.07.08.13.13.18.05.05.09.08.13.08.03.03.08.06.13.08.05.02.09.03.13.03.1,0,.2-.02.28-.05.09-.03.16-.08.23-.15.07-.03.15-.07.23-.1.09-.03.16-.05.23-.05.38-.4.74-.83,1.08-1.26.34-.44.68-.88,1.03-1.32.03-.03.06-.07.08-.1.02-.03.04-.05.08-.05.65-.88,1.33-1.72,2.03-2.53.7-.81,1.5-1.53,2.39-2.17-.34.94-.83,1.83-1.46,2.66-.63.83-1.29,1.64-1.98,2.45-.03.03-.08.08-.13.13-.05.05-.09.09-.13.13-.58.67-1.14,1.36-1.67,2.05-.53.69-.97,1.41-1.31,2.15-.17.34-.41.56-.72.66-.31.1-.63.15-.98.15-.17,0-.33,0-.49-.03-.15-.02-.32-.04-.49-.08-.21-.64-.39-1.29-.57-1.95-.17-.66-.26-1.36-.26-2.1v-1.26c0-.44-.02-.88-.05-1.32-.03-.44-.07-.89-.1-1.37-.07-.44-.12-.88-.15-1.32-.03-.44-.05-.88-.05-1.32,0-.51.04-1,.13-1.49.09-.49.21-.97.39-1.44v-.05ZM306.51,9.64c.07.03.15.05.23.05h.23c.24.03.45.09.64.18.19.08.32.26.39.53,0,.03,0,.08-.03.15-.02.07-.03.12-.03.15-.03.07-.05.14-.05.2s-.02.12-.05.15c-.03.24-.1.46-.21.68-.1.22-.26.43-.46.63l-1.34-.25c-.07-.1-.12-.21-.15-.33-.03-.12-.05-.24-.05-.38,0-.3.08-.59.23-.86.15-.27.33-.51.54-.71,0-.03,0-.06.03-.08.02-.02.04-.04.08-.08v-.05Z"/>
  <path class="cls-3" d="M319.66,18.29c.07-.07.15-.14.26-.23.1-.08.21-.14.31-.18.14-.07.26-.08.39-.03.12.05.2.18.23.38v2.6c0,.25.02.51.05.78,0,.67.03,1.33.1,1.97.07.64.17,1.26.31,1.87l.67.46c.31-.1.62-.22.92-.35.31-.13.6-.27.87-.4.03,0,.08,0,.13-.03.05-.02.09-.04.13-.08.72-.3,1.44-.62,2.16-.96.72-.34,1.4-.74,2.05-1.21h.31c.07,0,.13,0,.18.03.05.02.09.06.13.13-.14.07-.27.15-.39.25-.12.1-.25.2-.39.3-.1.1-.22.21-.36.33-.14.12-.26.23-.36.33-.45.37-.91.73-1.39,1.06-.48.34-.99.56-1.54.66-.38.17-.75.37-1.13.61-.38.24-.72.56-1.03.96.03.1.08.21.13.33.05.12.09.24.13.38.03.03.06.08.08.13.02.05.04.11.08.18.1.34.21.67.31.99.1.32.15.67.15,1.04,0,.14,0,.26-.03.38-.02.12-.04.24-.08.38-.03.07-.06.14-.08.2-.02.07-.04.14-.08.2-.03.03-.06.08-.08.13-.02.05-.03.09-.03.13-.14.34-.3.65-.49.94-.19.29-.47.51-.85.68-.34.14-.7.24-1.08.3-.38.07-.75.1-1.13.1s-.74-.03-1.1-.1c-.36-.07-.73-.17-1.1-.3-.58-.34-.98-.75-1.21-1.24-.22-.49-.33-1-.33-1.54v-.33c0-.12.02-.24.05-.38,0-.13,0-.26.03-.38.02-.12.04-.23.08-.33.27-.4.6-.72.98-.94.38-.22.79-.43,1.23-.63.03-.03.09-.06.15-.08.07-.02.12-.04.15-.08.31-.1.6-.23.87-.38.27-.15.53-.35.77-.58,0-.24-.03-.46-.08-.68-.05-.22-.11-.43-.18-.63-.03-.1-.06-.19-.08-.28-.02-.08-.04-.16-.08-.23-.1-.34-.2-.69-.28-1.06-.09-.37-.13-.78-.13-1.21v-.25c-.07-.07-.13-.11-.18-.13-.05-.02-.11-.03-.18-.03-.03,0-.09,0-.15.03-.07.02-.14.06-.21.13-.03,0-.06.02-.08.05-.02.03-.04.05-.08.05,0,.03-.02.07-.05.1-.03.03-.06.06-.08.08-.02.02-.04.03-.08.03h-.05v-.25c0-.4.09-.78.28-1.14.19-.35.4-.7.64-1.04.21-.3.39-.61.57-.94.17-.32.27-.65.31-.99v-.05ZM321.3,30.28s0,.04,0,.03v-.18c0-.64-.14-1.08-.41-1.32-.27-.24-.62-.35-1.03-.35-.14,0-.29.02-.46.05-.17.03-.34.07-.51.1-.34.1-.68.25-1,.43-.33.19-.61.38-.85.58-.07.03-.14.08-.21.13-.07.05-.12.11-.15.18v1.06c.03.27.1.52.21.76.1.24.26.44.46.61.31.17.64.33,1,.48.36.15.74.23,1.16.23h.1s.07-.02.1-.05h.21c.48-.13.85-.4,1.1-.78.26-.39.39-.8.39-1.24v-.18c0-.05-.02-.11-.05-.18,0-.03,0-.08-.03-.15-.02-.07-.03-.12-.03-.15v-.05Z"/>
  <g>
    <path class="cls-3" d="M195.34,49.77h-.68v-4.81l-.8,4.81h-.4l-.8-4.81v4.81h-.68v-6.53h1.04l.64,4.1.64-4.1h1.03v6.53Z"/>
    <path class="cls-3" d="M201.11,44.17h-1.38v1.72h1.02v.93h-1.02v2.02h1.38v.93h-2.09v-6.53h2.09v.93Z"/>
    <path class="cls-3" d="M206.35,45.37v-.14c0-.75-.19-1.14-.54-1.14-.19,0-.35.12-.42.32-.09.22-.11.41-.11.94v2.17c0,.5.02.75.08.97.07.25.25.42.46.42.26,0,.44-.22.51-.65.03-.17.03-.31.04-.79h.72v.23c0,1.42-.44,2.16-1.27,2.16-.46,0-.83-.25-1.03-.72-.17-.4-.22-.78-.22-1.75v-1.83c0-1.04.06-1.4.27-1.81.2-.39.55-.61.98-.61.79,0,1.25.74,1.25,2.03v.2h-.71Z"/>
    <path class="cls-3" d="M211.37,46.89v2.88h-.71v-6.53h.71v2.72h1.02v-2.72h.71v6.53h-.71v-2.88h-1.02Z"/>
    <path class="cls-3" d="M218.86,44.17h-1.38v1.72h1.02v.93h-1.02v2.02h1.38v.93h-2.09v-6.53h2.09v.93Z"/>
    <path class="cls-3" d="M223.04,48.84h1.42v.93h-2.13v-6.53h.71v5.6Z"/>
    <path class="cls-3" d="M229.96,44.17h-1.38v1.72h1.02v.93h-1.02v2.02h1.38v.93h-2.09v-6.53h2.09v.93Z"/>
    <path class="cls-3" d="M235.99,49.77h-.64l-1.25-4.35v4.35h-.68v-6.53h.72l1.16,4.06v-4.06h.68v6.53Z"/>
  </g>
</svg>